{
    "asset" : {
        "generator" : "Khronos glTF Blender I/O v1.2.75",
        "version" : "2.0"
    },
    "scene" : 0,
    "scenes" : [
        {
            "name" : "Scene",
            "nodes" : [
                10
            ]
        }
    ],
    "nodes" : [
        {
            "name" : "Bone.008",
            "translation" : [
                0,
                1.023824691772461,
                0
            ]
        },
        {
            "children" : [
                0
            ],
            "name" : "Bone.007",
            "translation" : [
                0,
                0.9910101890563965,
                0
            ]
        },
        {
            "children" : [
                1
            ],
            "name" : "Bone.006",
            "translation" : [
                0,
                0.9910101890563965,
                0
            ]
        },
        {
            "children" : [
                2
            ],
            "name" : "Bone.005",
            "translation" : [
                0,
                1.004136085510254,
                0
            ]
        },
        {
            "children" : [
                3
            ],
            "name" : "Bone.004",
            "translation" : [
                0,
                0.9975733757019043,
                0
            ]
        },
        {
            "children" : [
                4
            ],
            "name" : "Bone.003",
            "translation" : [
                0,
                1.0106992721557617,
                0
            ]
        },
        {
            "children" : [
                5
            ],
            "name" : "Bone.002",
            "translation" : [
                0,
                0.9910101890563965,
                0
            ]
        },
        {
            "children" : [
                6
            ],
            "name" : "Bone.001",
            "translation" : [
                0,
                1,
                0
            ]
        },
        {
            "children" : [
                7
            ],
            "name" : "Bone.000"
        },
        {
            "mesh" : 0,
            "name" : "Cylinder",
            "skin" : 0
        },
        {
            "children" : [
                9,
                8
            ],
            "name" : "Armature"
        }
    ],
    "materials" : [
        {
            "doubleSided" : true,
            "emissiveFactor" : [
                0,
                0,
                0
            ],
            "name" : "Material.001",
            "pbrMetallicRoughness" : {
                "baseColorFactor" : [
                    0.8000000715255737,
                    0.12951838970184326,
                    0,
                    1
                ],
                "metallicFactor" : 0,
                "roughnessFactor" : 0.5
            }
        }
    ],
    "meshes" : [
        {
            "name" : "Cylinder",
            "primitives" : [
                {
                    "attributes" : {
                        "POSITION" : 0,
                        "NORMAL" : 1,
                        "TEXCOORD_0" : 2,
                        "JOINTS_0" : 3,
                        "WEIGHTS_0" : 4
                    },
                    "indices" : 5,
                    "material" : 0
                }
            ]
        }
    ],
    "skins" : [
        {
            "inverseBindMatrices" : 6,
            "joints" : [
                8,
                7,
                6,
                5,
                4,
                3,
                2,
                1,
                0
            ],
            "name" : "Armature"
        }
    ],
    "accessors" : [
        {
            "bufferView" : 0,
            "componentType" : 5126,
            "count" : 3812,
            "max" : [
                0.191448375582695,
                7.997635364532471,
                0.19144606590270996
            ],
            "min" : [
                -0.19144649803638458,
                -0.014736831188201904,
                -0.19144606590270996
            ],
            "type" : "VEC3"
        },
        {
            "bufferView" : 1,
            "componentType" : 5126,
            "count" : 3812,
            "type" : "VEC3"
        },
        {
            "bufferView" : 2,
            "componentType" : 5126,
            "count" : 3812,
            "type" : "VEC2"
        },
        {
            "bufferView" : 3,
            "componentType" : 5123,
            "count" : 3812,
            "type" : "VEC4"
        },
        {
            "bufferView" : 4,
            "componentType" : 5126,
            "count" : 3812,
            "type" : "VEC4"
        },
        {
            "bufferView" : 5,
            "componentType" : 5123,
            "count" : 6324,
            "type" : "SCALAR"
        },
        {
            "bufferView" : 6,
            "componentType" : 5126,
            "count" : 9,
            "type" : "MAT4"
        }
    ],
    "bufferViews" : [
        {
            "buffer" : 0,
            "byteLength" : 45744,
            "byteOffset" : 0
        },
        {
            "buffer" : 0,
            "byteLength" : 45744,
            "byteOffset" : 45744
        },
        {
            "buffer" : 0,
            "byteLength" : 30496,
            "byteOffset" : 91488
        },
        {
            "buffer" : 0,
            "byteLength" : 30496,
            "byteOffset" : 121984
        },
        {
            "buffer" : 0,
            "byteLength" : 60992,
            "byteOffset" : 152480
        },
        {
            "buffer" : 0,
            "byteLength" : 12648,
            "byteOffset" : 213472
        },
        {
            "buffer" : 0,
            "byteLength" : 576,
            "byteOffset" : 226120
        }
    ],
    "buffers" : [
        {
            "byteLength" : 226696,
            "uri" : "robot_arm.bin"
        }
    ]
}
